<svg width="45" height="46" viewBox="0 0 45 46" fill="none" xmlns="http://www.w3.org/2000/svg">
<path d="M44.4193 21.651V25.0776C44.2122 25.8822 44.1845 26.7228 44.0308 27.5395C42.3333 36.5569 35.2309 43.77 26.3001 45.4332C25.4889 45.5842 24.6566 45.6197 23.8547 45.8124C22.7532 45.7478 21.5602 45.8993 20.4706 45.8124C1.71165 44.3147 -6.90079 20.9225 6.50894 7.38292C19.9187 -6.15669 43.0443 2.64028 44.4193 21.651ZM23.8544 19.0152V15.5448C23.8544 15.2725 24.4207 14.6222 24.6787 14.6222H28.2364C28.2456 14.6222 28.3665 14.4997 28.3665 14.4904V9.65804C28.3665 9.56171 28.1547 9.53215 28.0672 9.5218C26.4193 9.32595 22.4954 9.44322 20.9942 10.1005C17.498 11.6314 17.7195 15.763 17.7803 19.015H15.047C15.0377 19.015 14.9169 19.1374 14.9169 19.1468V24.1986H17.7803V38.8712H23.8544V24.1986H27.7158L28.2799 19.015L23.8544 19.0152Z" fill="white"/>
</svg>
