<svg width="74" height="68" viewBox="0 0 74 68" fill="none" xmlns="http://www.w3.org/2000/svg">
<path d="M20.1406 0C17.733 0 15.4239 0.956443 13.7214 2.65892C12.0189 4.3614 11.0625 6.67046 11.0625 9.07812V31.125H16.25V9.07812C16.25 8.04627 16.6599 7.05667 17.3895 6.32704C18.1192 5.5974 19.1088 5.1875 20.1406 5.1875H48.6719C49.7037 5.1875 50.6933 5.5974 51.423 6.32704C52.1526 7.05667 52.5625 8.04627 52.5625 9.07812V59.6562C52.5625 60.545 52.476 61.4096 52.3031 62.25H60.3438C63.7833 62.25 67.0819 60.8837 69.514 58.4515C71.9462 56.0194 73.3125 52.7208 73.3125 49.2812V41.5H57.75V9.07812C57.75 6.67046 56.7936 4.3614 55.0911 2.65892C53.3886 0.956443 51.0795 0 48.6719 0H20.1406ZM39.5938 31.125C41.3575 31.125 43.0486 31.4778 44.5841 32.121C44.7481 31.7267 44.8122 31.2981 44.7707 30.8731C44.7292 30.4481 44.5835 30.0399 44.3464 29.6848C44.1093 29.3297 43.7882 29.0386 43.4116 28.8373C43.035 28.6361 42.6145 28.531 42.1875 28.5312H26.625C25.9371 28.5312 25.2774 28.8045 24.7909 29.2909C24.3045 29.7774 24.0312 30.4371 24.0312 31.125H39.5938ZM57.75 46.6875H68.125V49.2812C68.125 51.345 67.3052 53.3242 65.8459 54.7834C64.3867 56.2427 62.4075 57.0625 60.3438 57.0625H57.75V46.6875ZM24.0312 18.1562C24.0312 17.4683 24.3045 16.8086 24.7909 16.3222C25.2774 15.8358 25.9371 15.5625 26.625 15.5625H42.1875C42.8754 15.5625 43.5351 15.8358 44.0216 16.3222C44.508 16.8086 44.7812 17.4683 44.7812 18.1562C44.7812 18.8442 44.508 19.5039 44.0216 19.9903C43.5351 20.4767 42.8754 20.75 42.1875 20.75H26.625C25.9371 20.75 25.2774 20.4767 24.7909 19.9903C24.3045 19.5039 24.0312 18.8442 24.0312 18.1562ZM47.375 44.0938C47.375 42.03 46.5552 40.0508 45.0959 38.5916C43.6367 37.1323 41.6575 36.3125 39.5938 36.3125H8.46875C6.40503 36.3125 4.42584 37.1323 2.96658 38.5916C1.50731 40.0508 0.6875 42.03 0.6875 44.0938V59.6562C0.6875 61.72 1.50731 63.6992 2.96658 65.1584C4.42584 66.6177 6.40503 67.4375 8.46875 67.4375H39.5938C41.6575 67.4375 43.6367 66.6177 45.0959 65.1584C46.5552 63.6992 47.375 61.72 47.375 59.6562V44.0938ZM42.1875 54.4688V59.6562C41.4996 59.6562 40.8399 59.9295 40.3534 60.4159C39.867 60.9024 39.5938 61.5621 39.5938 62.25H34.4062C34.4062 60.1863 35.2261 58.2071 36.6853 56.7478C38.1446 55.2886 40.1238 54.4688 42.1875 54.4688ZM39.5938 41.5C39.5938 42.1879 39.867 42.8476 40.3534 43.3341C40.8399 43.8205 41.4996 44.0938 42.1875 44.0938V49.2812C40.1238 49.2812 38.1446 48.4614 36.6853 47.0022C35.2261 45.5429 34.4062 43.5637 34.4062 41.5H39.5938ZM5.875 44.0938C6.56291 44.0938 7.22264 43.8205 7.70906 43.3341C8.19548 42.8476 8.46875 42.1879 8.46875 41.5H13.6562C13.6562 43.5637 12.8364 45.5429 11.3772 47.0022C9.91791 48.4614 7.93872 49.2812 5.875 49.2812V44.0938ZM8.46875 62.25C8.46875 61.5621 8.19548 60.9024 7.70906 60.4159C7.22264 59.9295 6.56291 59.6562 5.875 59.6562V54.4688C7.93872 54.4688 9.91791 55.2886 11.3772 56.7478C12.8364 58.2071 13.6562 60.1863 13.6562 62.25H8.46875ZM16.25 51.875C16.25 50.8532 16.4513 49.8413 16.8423 48.8972C17.2334 47.9532 17.8065 47.0954 18.5291 46.3728C19.2516 45.6503 20.1094 45.0771 21.0535 44.6861C21.9976 44.295 23.0094 44.0938 24.0312 44.0938C25.0531 44.0938 26.0649 44.295 27.009 44.6861C27.9531 45.0771 28.8109 45.6503 29.5334 46.3728C30.256 47.0954 30.8291 47.9532 31.2202 48.8972C31.6112 49.8413 31.8125 50.8532 31.8125 51.875C31.8125 53.9387 30.9927 55.9179 29.5334 57.3772C28.0742 58.8364 26.095 59.6562 24.0312 59.6562C21.9675 59.6562 19.9883 58.8364 18.5291 57.3772C17.0698 55.9179 16.25 53.9387 16.25 51.875Z" fill="#1FAE38"/>
</svg>
