<svg width="68" height="68" viewBox="0 0 68 68" fill="none" xmlns="http://www.w3.org/2000/svg">
<path d="M5.66663 12.75H24.8115C25.9281 12.7499 27.0338 12.9697 28.0654 13.3971C29.097 13.8244 30.0343 14.4508 30.8238 15.2405L39.6666 24.0833M14.1666 38.25H5.66663M24.0833 21.25L29.75 26.9167C30.122 27.2887 30.4172 27.7305 30.6186 28.2166C30.8199 28.7028 30.9236 29.2238 30.9236 29.75C30.9236 30.2762 30.8199 30.7972 30.6186 31.2834C30.4172 31.7695 30.122 32.2113 29.75 32.5833C29.3779 32.9554 28.9362 33.2506 28.45 33.4519C27.9639 33.6533 27.4428 33.7569 26.9166 33.7569C26.3904 33.7569 25.8694 33.6533 25.3832 33.4519C24.8971 33.2506 24.4554 32.9554 24.0833 32.5833L19.8333 28.3333C17.3966 30.77 13.5348 31.0448 10.7751 28.9765L9.91663 28.3333" stroke="#1FAE38" stroke-width="4.25" stroke-linecap="round" stroke-linejoin="round"/>
<path d="M14.1666 31.1668V43.9168C14.1666 49.2605 14.1666 51.9295 15.827 53.5898C17.4873 55.2502 20.1563 55.2502 25.5 55.2502H51C56.3436 55.2502 59.0126 55.2502 60.673 53.5898C62.3333 51.9295 62.3333 49.2605 62.3333 43.9168V35.4168C62.3333 30.0732 62.3333 27.4042 60.673 25.7438C59.0126 24.0835 56.3436 24.0835 51 24.0835H26.9166" stroke="#1FAE38" stroke-width="4.25" stroke-linecap="round" stroke-linejoin="round"/>
<path d="M43.2083 39.6668C43.2083 40.9819 42.6859 42.243 41.756 43.1729C40.8262 44.1028 39.565 44.6252 38.25 44.6252C36.9349 44.6252 35.6738 44.1028 34.7439 43.1729C33.814 42.243 33.2916 40.9819 33.2916 39.6668C33.2916 38.3518 33.814 37.0906 34.7439 36.1608C35.6738 35.2309 36.9349 34.7085 38.25 34.7085C39.565 34.7085 40.8262 35.2309 41.756 36.1608C42.6859 37.0906 43.2083 38.3518 43.2083 39.6668Z" stroke="#1FAE38" stroke-width="4.25" stroke-linecap="round" stroke-linejoin="round"/>
</svg>
