<svg width="60" height="70" viewBox="0 0 60 70" fill="none" xmlns="http://www.w3.org/2000/svg">
<path d="M17.119 68H42.881C45.1916 67.9999 47.4695 67.4539 49.529 66.4065C51.5886 65.3591 53.3715 63.84 54.7326 61.9728C56.0936 60.1056 56.9943 57.9433 57.3612 55.662C57.728 53.3808 57.5507 51.0451 56.8437 48.8453L50.5883 29.39C49.4006 25.6947 47.0707 22.4718 43.9342 20.1853C40.7977 17.8988 37.0165 16.6668 33.135 16.6667H26.865C22.9835 16.6668 19.2023 17.8988 16.0658 20.1853C12.9293 22.4718 10.5994 25.6947 9.41166 29.39L3.15633 48.8453C2.44929 51.0451 2.27198 53.3808 2.63884 55.662C3.0057 57.9433 3.90636 60.1056 5.26742 61.9728C6.62848 63.84 8.41143 65.3591 10.471 66.4065C12.5305 67.4539 14.8084 67.9999 17.119 68ZM41 2C38.5556 11.7778 34.8889 16.6667 30 16.6667C25.1111 16.6667 21.4444 11.7778 19 2H41Z" stroke="#1FAE38" stroke-width="4" stroke-linecap="round" stroke-linejoin="round"/>
</svg>
