<svg width="70" height="67" viewBox="0 0 70 67" fill="none" xmlns="http://www.w3.org/2000/svg">
<path d="M65 56.6664V54.9997C64.9986 53.674 64.4713 52.4031 63.534 51.4657C62.5966 50.5283 61.3257 50.001 60 49.9995H40C38.6743 50.001 37.4034 50.5283 36.466 51.4657C35.5287 52.4031 35.0014 53.674 35 54.9997V56.6664C33.6743 56.6678 32.4034 57.1951 31.466 58.1325C30.5287 59.0699 30.0014 60.3409 30 61.6665V65C30 65.442 30.1756 65.866 30.4882 66.1785C30.8007 66.4911 31.2246 66.6667 31.6667 66.6667H68.3333C68.7754 66.6667 69.1993 66.4911 69.5118 66.1785C69.8244 65.866 70 65.442 70 65V61.6665C69.9986 60.3409 69.4713 59.0699 68.534 58.1325C67.5966 57.1951 66.3257 56.6678 65 56.6664ZM33.3333 61.6665C33.3339 61.2247 33.5097 60.8011 33.8221 60.4887C34.1346 60.1762 34.5581 60.0004 35 59.9999H65C65.4418 60.0004 65.8654 60.1762 66.1779 60.4887C66.4903 60.8011 66.6661 61.2247 66.6667 61.6665V63.3332H33.3333V61.6665ZM38.3333 54.9996C38.3339 54.5578 38.5097 54.1342 38.8221 53.8218C39.1346 53.5093 39.5582 53.3336 40 53.333H60C60.4418 53.3336 60.8654 53.5093 61.1779 53.8218C61.4903 54.1342 61.6661 54.5578 61.6667 54.9996V56.6663H38.3333V54.9996Z" fill="#1FAE38"/>
<path d="M48.8845 39.9568L58.5167 30.3259C59.4658 29.3737 59.9987 28.0841 59.9985 26.7396C59.9984 25.3952 59.4652 24.1056 58.5159 23.1537L56.1078 20.7455C55.3633 20.0057 54.4073 19.5156 53.372 19.343C52.3367 19.1703 51.2734 19.3238 50.3291 19.782L40.2175 9.67002C40.6757 8.72574 40.8292 7.66237 40.6566 6.62704C40.484 5.59172 39.9939 4.63564 39.254 3.89112L36.846 1.48218C35.8939 0.532869 34.6043 -0.00015306 33.2598 3.29688e-08C31.9153 0.000153125 30.6258 0.533469 29.6739 1.483L20.0434 11.1147C19.0924 12.0658 18.5582 13.3558 18.5582 14.7008C18.5582 16.0458 19.0924 17.3358 20.0434 18.2869L22.4506 20.695C23.1905 21.4423 24.147 21.9376 25.1843 22.1105C26.2216 22.2835 27.287 22.1254 28.2294 21.6586L29.6465 23.0758L1.9851 48.4353C1.35371 49.0664 0.853288 49.8161 0.512616 50.6412C0.171945 51.4664 -0.00225832 52.3508 2.21025e-05 53.2435C0.00230253 54.1362 0.181022 55.0197 0.525905 55.8431C0.870788 56.6665 1.37503 57.4137 2.00964 58.0415C2.64426 58.6694 3.39672 59.1657 4.22377 59.5017C5.05082 59.8378 5.93615 60.0071 6.82885 59.9999C7.72155 59.9926 8.60401 59.809 9.4255 59.4595C10.247 59.1101 10.9913 58.6017 11.6156 57.9636L36.9239 30.3533L38.341 31.7705C37.8827 32.7148 37.7293 33.7782 37.9019 34.8135C38.0745 35.8488 38.5646 36.8049 39.3044 37.5494L41.7125 39.9567C42.6636 40.9077 43.9535 41.442 45.2985 41.442C46.6435 41.442 47.9334 40.9078 48.8845 39.9568ZM41.6612 32.7341L51.2925 23.1024C51.619 22.7772 52.061 22.5945 52.5218 22.5945C52.9826 22.5945 53.4246 22.7772 53.751 23.1024L56.1583 25.5105C56.4838 25.8368 56.6666 26.2788 56.6668 26.7396C56.6669 27.2005 56.4844 27.6426 56.1591 27.9691L46.5277 37.6C46.1964 37.9158 45.7562 38.092 45.2985 38.092C44.8407 38.092 44.4006 37.9158 44.0692 37.6L41.6612 35.1927C41.3356 34.8664 41.1527 34.4243 41.1527 33.9634C41.1527 33.5024 41.3356 33.0603 41.6612 32.7341ZM33.2343 21.95L30.801 19.5167L38.0755 12.2418L47.7573 21.924L40.4828 29.1988L38.0494 26.7655L33.2343 21.95ZM24.8074 18.3382L22.4001 15.9301C22.0744 15.6039 21.8915 15.1618 21.8915 14.7008C21.8915 14.2398 22.0744 13.7977 22.4001 13.4715L32.0307 3.84067C32.3566 3.51461 32.7987 3.33136 33.2598 3.33121C33.7208 3.33105 34.163 3.51401 34.4892 3.83985L36.8972 6.24797C37.2228 6.57424 37.4056 7.01634 37.4056 7.47726C37.4056 7.93818 37.2228 8.38028 36.8972 8.70655L27.2659 18.3382C26.9394 18.6634 26.4974 18.846 26.0366 18.846C25.5758 18.846 25.1338 18.6634 24.8074 18.3382ZM4.34187 55.6588C3.70586 55.0219 3.34432 54.1614 3.33459 53.2613C3.32485 52.3612 3.6677 51.4931 4.28979 50.8426L32.0055 25.4356L34.564 27.9943L9.2084 55.6588C8.55262 56.2841 7.68127 56.633 6.77514 56.633C5.86901 56.633 4.99766 56.2841 4.34187 55.6588Z" fill="#1FAE38"/>
</svg>
