<svg width="42" height="42" viewBox="0 0 42 42" fill="none" xmlns="http://www.w3.org/2000/svg">
<path d="M9.18091 0.855737L32.0469 0.839844C36.8736 1.39993 40.6807 5.28199 41.1532 10.1163V32.5393C40.6834 37.4226 36.7536 41.3616 31.8655 41.827H9.44259C4.58139 41.3531 0.680968 37.49 0.155137 32.6351C0.511288 25.2936 -0.323686 17.4954 0.149093 10.2068C0.459353 5.42123 4.46297 1.4006 9.18091 0.855513V0.855737ZM31.2157 8.2617C28.8305 8.66822 29.1827 12.5001 31.7572 12.3712C34.5025 12.2338 34.2404 7.74617 31.2157 8.2617ZM20.1531 11.0581C12.2441 11.4731 7.65042 20.3874 12.1067 27.0363C16.8273 34.0801 27.6475 32.6754 30.3767 24.65C32.703 17.8093 27.3647 10.6795 20.1533 11.0579L20.1531 11.0581Z" fill="white"/>
<path d="M19.9603 15.1963C28.3098 14.3447 29.2016 26.8725 21.1816 27.4861C13.0779 28.1061 12.1198 15.9959 19.9603 15.1963Z" fill="white"/>
</svg>
