<svg width="36" height="36" viewBox="0 0 36 36" fill="none" xmlns="http://www.w3.org/2000/svg">
<path d="M30.4242 5.30382C28.8326 3.66663 26.937 2.36851 24.848 1.4851C22.759 0.601695 20.5182 0.150665 18.2564 0.158298C8.77898 0.158298 1.05476 8.02688 1.05476 17.6814C1.05476 20.7757 1.85322 23.7817 3.34599 26.434L0.915894 35.5227L10.0287 33.0825C12.5456 34.4794 15.375 35.2221 18.2564 35.2221C27.7337 35.2221 35.458 27.3535 35.458 17.699C35.458 13.0133 33.6701 8.61039 30.4242 5.30382ZM18.2564 32.2515C15.6874 32.2515 13.1705 31.5442 10.9661 30.218L10.4453 29.8997L5.0297 31.3497L6.4704 25.9743L6.12324 25.4262C4.69564 23.1046 3.93776 20.4208 3.93615 17.6814C3.93615 9.65364 10.3585 3.11123 18.239 3.11123C22.0577 3.11123 25.6508 4.63189 28.3412 7.39032C29.6737 8.74099 30.7295 10.3477 31.4476 12.1173C32.1657 13.887 32.5318 15.7842 32.5245 17.699C32.5592 25.7268 26.1368 32.2515 18.2564 32.2515ZM26.1021 21.3593C25.6681 21.1471 23.5505 20.0861 23.1686 19.927C22.7694 19.7855 22.4917 19.7148 22.1966 20.1392C21.9015 20.5812 21.0857 21.5714 20.8427 21.8544C20.5997 22.155 20.3393 22.1903 19.9053 21.9604C19.4714 21.7483 18.0828 21.2708 16.4511 19.7855C15.1667 18.6185 14.3161 17.1863 14.0558 16.7442C13.8128 16.3021 14.021 16.0723 14.2467 15.8424C14.4376 15.6479 14.6806 15.3296 14.8889 15.0821C15.0972 14.8345 15.184 14.64 15.3229 14.3571C15.4617 14.0565 15.3923 13.809 15.2882 13.5968C15.184 13.3846 14.3161 11.2274 13.969 10.3432C13.6218 9.4945 13.2573 9.60059 12.9969 9.58291H12.1638C11.8687 9.58291 11.4174 9.689 11.0181 10.1311C10.6363 10.5731 9.52537 11.634 9.52537 13.7913C9.52537 15.9485 11.0702 18.035 11.2785 18.3179C11.4868 18.6185 14.3161 23.0391 18.6209 24.9311C19.645 25.3908 20.4434 25.656 21.0683 25.8505C22.0924 26.1865 23.0298 26.1334 23.7761 26.0273C24.6093 25.9036 26.3277 24.9664 26.6749 23.9409C27.0394 22.9153 27.0394 22.0489 26.9179 21.8544C26.7964 21.6599 26.536 21.5714 26.1021 21.3593Z" fill="white"/>
</svg>
