<svg width="382" height="334" viewBox="0 0 382 334" fill="none" xmlns="http://www.w3.org/2000/svg">
<path d="M628 0C683.228 9.29803e-06 728 44.7715 728 100V103.036C728 158.265 683.228 203.036 628 203.036H504.635C490.811 203.036 480.833 216.416 480.833 230.241V233.277C480.833 288.506 436.061 333.277 380.833 333.277H100C44.7715 333.277 0 288.506 0 233.277V230.241C4.31771e-05 175.013 44.7716 130.241 100 130.241H223.365C237.189 130.241 247.167 116.861 247.167 103.036V100C247.167 44.7715 291.939 0 347.167 0H628Z" fill="#00B025"/>
</svg>
