<svg width="362" height="334" viewBox="0 0 362 334" fill="none" xmlns="http://www.w3.org/2000/svg">
<path d="M262 0C317.228 9.29803e-06 362 44.7715 362 100V103.036C362 158.265 317.228 203.036 262 203.036H138.635C124.811 203.036 114.833 216.416 114.833 230.241V233.277C114.833 288.506 70.0615 333.277 14.833 333.277H-266C-321.228 333.277 -366 288.506 -366 233.277V230.241C-366 175.013 -321.228 130.241 -266 130.241H-142.635C-128.811 130.241 -118.833 116.861 -118.833 103.036V100C-118.833 44.7715 -74.0615 0 -18.833 0H262Z" fill="#00B025"/>
</svg>
