<svg width="638" height="509" viewBox="0 0 638 509" fill="none" xmlns="http://www.w3.org/2000/svg">
<path d="M1010.6 0C1065.83 2.72145e-06 1110.6 44.7716 1110.6 100V209.854C1110.6 265.082 1065.83 309.854 1010.6 309.854H761.799C746.335 309.854 733.799 322.39 733.799 337.854V408.615C733.799 463.844 689.027 508.615 633.799 508.615H100C44.7716 508.615 0.00016981 463.844 0 408.615V298.762C0 243.533 44.7715 198.762 100 198.762H348.799C364.263 198.762 376.799 186.226 376.799 170.762V100C376.799 44.7716 421.57 2.72145e-06 476.799 0H1010.6Z" fill="#00B025"/>
</svg>
