<svg width="384" height="480" viewBox="0 0 384 480" fill="none" xmlns="http://www.w3.org/2000/svg">
<path d="M284 0C339.228 8.70691e-05 384 44.7716 384 100V192.109C384 247.338 339.228 292.109 284 292.109H56.7783C41.3143 292.109 28.7783 304.645 28.7783 320.109V379.488C28.7783 434.717 -15.9932 479.488 -71.2217 479.488H-563C-618.228 479.488 -663 434.717 -663 379.488V287.379C-663 232.15 -618.228 187.379 -563 187.379H-335.778C-320.314 187.379 -307.778 174.843 -307.778 159.379V100C-307.778 44.7715 -263.007 0 -207.778 0H284Z" fill="#00B025"/>
</svg>
