<svg width="434" height="480" viewBox="0 0 434 480" fill="none" xmlns="http://www.w3.org/2000/svg">
<path d="M947 0C1002.23 8.70691e-05 1047 44.7716 1047 100V192.109C1047 247.338 1002.23 292.109 947 292.109H719.778C704.314 292.109 691.778 304.645 691.778 320.109V379.488C691.778 434.717 647.007 479.488 591.778 479.488H100C44.7716 479.488 0 434.717 0 379.488V287.379C0 232.15 44.7715 187.379 100 187.379H327.222C342.686 187.379 355.222 174.843 355.222 159.379V100C355.222 44.7715 399.993 0 455.222 0H947Z" fill="#00B025"/>
</svg>
